<svg width="24" height="24" viewBox="0 0 24 24" fill="none" xmlns="http://www.w3.org/2000/svg">
<path d="M12.2188 0.500001C12.0145 0.506442 11.8177 0.573036 11.6573 0.690051L2.57682 7.29344C1.42433 8.13183 0.75 9.41293 0.75 10.7673V22.0252C0.75 22.8294 1.47604 23.4996 2.34722 23.4996H8.73611C9.6073 23.4996 10.3333 22.8294 10.3333 22.0252V16.1279C10.3333 15.9539 10.4643 15.8331 10.6528 15.8331H13.8472C14.0357 15.8331 14.1667 15.9539 14.1667 16.1279V22.0252C14.1667 22.8294 14.8927 23.4996 15.7639 23.4996H22.1528C23.024 23.4996 23.75 22.8294 23.75 22.0252V10.7673C23.75 9.41293 23.0757 8.13183 21.9232 7.29344L12.8427 0.690051C12.6655 0.560826 12.4445 0.493519 12.2188 0.500001ZM12.25 2.51108L20.7377 8.68369C21.4304 9.18754 21.8333 9.95389 21.8333 10.7673V21.7304H16.0833V16.1279C16.0833 14.9986 15.0707 14.0639 13.8472 14.0639H10.6528C9.42933 14.0639 8.41667 14.9986 8.41667 16.1279V21.7304H2.66667V10.7673C2.66667 9.95389 3.06964 9.18754 3.76226 8.68369L12.25 2.51108Z" fill="#808080"/>
</svg>
